/* XPM */
static char *_c503394afde4debd8bed96cfe14e768BdTSAO0GTYPngntg[] = {
/* columns rows colors chars-per-pixel */
"16 16 97 2 ",
"   c None",
".  c black",
"X  c #010100",
"o  c #18120C",
"O  c #18130E",
"+  c #1A140F",
"@  c #1C1611",
"#  c #38220F",
"$  c #3D2F24",
"%  c #4B2E14",
"&  c #4F351F",
"*  c #623E1D",
"=  c #423529",
"-  c #544335",
";  c #5F4C39",
":  c #65482E",
">  c #6A5039",
",  c #68513D",
"<  c #735337",
"1  c #775639",
"2  c #5C5956",
"3  c #5A5A5A",
"4  c #5B5A5A",
"5  c #695441",
"6  c #6B5643",
"7  c #6F5843",
"8  c #765D47",
"9  c #795F47",
"0  c #7A5F47",
"q  c #695E53",
"w  c #6D5F52",
"e  c #635F5D",
"r  c #73604E",
"t  c #7B6049",
"y  c #7A614A",
"u  c #7B624C",
"i  c #7A624D",
"p  c #6E6052",
"a  c #696057",
"s  c #6E665F",
"d  c #716458",
"f  c #6D6660",
"g  c #6F6F6F",
"h  c #7B6F65",
"j  c #797876",
"k  c #797877",
"l  c #8C5C2F",
"z  c #875930",
"x  c #8B5E34",
"c  c #946030",
"v  c #966232",
"b  c #996332",
"n  c #9F6531",
"m  c #9F6732",
"M  c #9C6535",
"N  c #9C6A3C",
"B  c #A8672D",
"V  c #AF6C2F",
"C  c #A16937",
"Z  c #AA6B32",
"A  c #AF6D33",
"S  c #A96E37",
"D  c #AC6E36",
"F  c #AC6F37",
"G  c #AE6F36",
"H  c #A36C3A",
"J  c #B16E31",
"K  c #B16F32",
"L  c #B46F30",
"P  c #B47032",
"I  c #B47133",
"U  c #B57133",
"Y  c #B67132",
"T  c #B97231",
"R  c #B87132",
"E  c #856547",
"W  c #876647",
"Q  c #886646",
"!  c #826449",
"~  c #81674F",
"^  c #85684E",
"/  c #85684F",
"(  c #8D6A4A",
")  c #827061",
"_  c #B48D6A",
"`  c #B48F6E",
"'  c #C49973",
"]  c #8B8885",
"[  c #95908B",
"{  c #BCA795",
"}  c #DDAD82",
"|  c #DEB086",
" . c #DFB188",
".. c #CBB39F",
"X. c #E1B58E",
"o. c #CEBCAC",
"O. c #E5C2A2",
/* pixels */
"                                ",
"                                ",
"              X B # X           ",
"          _ , c T : $ o         ",
"        } / 1 T A ; z J &       ",
"      } X.h 0 T T Y Y T l +     ",
"    } | o.j u T u p F Y > y     ",
"    } O.[ s T W 3 H T r a `     ",
"    } ..j F F 3 ! T W 3 e 9     ",
"    ' ) ( T w 3 I F 3 3 7 A     ",
"    0 < L N 3 q T W 3 3 F c     ",
"    O L T d g s T W 2 M n @     ",
"      V n 5 { ] ~ C b x =       ",
"      % * 8 X.' / 5 - @         ",
"                                ",
"                                "
};
