/* XPM */
static char *c8f17940301b4907be517a383ccfdaa4fIHPOGXZEgBCTnw7[] = {
/* columns rows colors chars-per-pixel */
"32 32 174 2 ",
"   c None",
".  c #090603",
"X  c #100A05",
"o  c #1A1510",
"O  c #291A0C",
"+  c #35210E",
"@  c #3B2E23",
"#  c #623D1A",
"$  c #433425",
"%  c #593D23",
"&  c #5B4837",
"*  c #544231",
"=  c #62472F",
"-  c #764B23",
";  c #7F4E22",
":  c #714A28",
">  c #634E3B",
",  c #67513D",
"<  c #69503B",
"1  c #765639",
"2  c #5F5043",
"3  c #5B5149",
"4  c #5F5F5F",
"5  c #6B5643",
"6  c #6F5844",
"7  c #605449",
"8  c #6E5B4A",
"9  c #725A44",
"0  c #785E47",
"q  c #655D55",
"w  c #7B634C",
"e  c #76624F",
"r  c #776657",
"t  c #7D6856",
"y  c #796758",
"u  c #7F6C5A",
"i  c #7B6653",
"p  c #6C6966",
"a  c #6D6C6B",
"s  c #656565",
"d  c #776D65",
"f  c #7B6F66",
"g  c #76716D",
"h  c #7B746D",
"j  c #7E7267",
"k  c #7B7B7B",
"l  c #7A7673",
"z  c #815023",
"x  c #8B5626",
"c  c #80542C",
"v  c #945C29",
"b  c #8B5F39",
"n  c #865E39",
"m  c #8F6136",
"M  c #8B633F",
"N  c #946233",
"B  c #9C6532",
"V  c #94673F",
"C  c #9B6A3D",
"Z  c #A9682E",
"A  c #A56B35",
"S  c #AC6D34",
"D  c #A46D3B",
"F  c #AB6F39",
"G  c #B26F32",
"H  c #AE7036",
"J  c #A7703E",
"K  c #B47133",
"L  c #B97231",
"P  c #896747",
"I  c #82664C",
"U  c #83684F",
"Y  c #8E6C4D",
"T  c #836243",
"R  c #9A6C42",
"E  c #986F4A",
"W  c #966A41",
"Q  c #9B7047",
"!  c #92704F",
"~  c #9B714B",
"^  c #876C54",
"/  c #8F6F53",
"(  c #836F5C",
")  c #85705C",
"_  c #8A715C",
"`  c #967252",
"'  c #99775A",
"]  c #98795D",
"[  c #A36F40",
"{  c #A37142",
"}  c #806F60",
"|  c #8C7663",
" . c #847669",
".. c #9F7E60",
"X. c #957F6B",
"o. c #837D77",
"O. c #867F78",
"+. c #88827E",
"@. c #92877E",
"#. c #9F8C7B",
"$. c #A98564",
"%. c #AD896A",
"&. c #B48D6B",
"*. c #A88E75",
"=. c #A9907B",
"-. c #BE9570",
";. c #CC9F78",
":. c #CCA17A",
">. c #848484",
",. c #888685",
"<. c #8B8B8B",
"1. c #968B82",
"2. c #978E87",
"3. c #98938F",
"4. c #949494",
"5. c #999694",
"6. c #9A9A9A",
"7. c #9F9993",
"8. c #A89380",
"9. c #A3988F",
"0. c #B39D89",
"q. c #BFA68F",
"w. c #BAAB9F",
"e. c gray63",
"r. c #ABABAB",
"t. c #B8ADA3",
"y. c #B3AEAA",
"u. c #BAB4AF",
"i. c #B4B3B3",
"p. c #BDBDBD",
"a. c #BCB7B4",
"s. c #CEA986",
"d. c #DDAD83",
"f. c #DFB087",
"g. c #DFB289",
"h. c #C7AC93",
"j. c #E0B58E",
"k. c #E3B994",
"l. c #E4BE9B",
"z. c #CBB9A8",
"x. c #D9BFA5",
"c. c #D6BBA3",
"v. c #C5BDB7",
"b. c #E5C09F",
"n. c #DAC5B3",
"m. c #DECDBE",
"M. c #E6C3A4",
"N. c #E8C6A9",
"B. c #E9C9AD",
"V. c #EACDB4",
"C. c #C5C5C5",
"Z. c #CECECE",
"A. c #DDCEC0",
"S. c #D0CFCF",
"D. c #D7D7D7",
"F. c #D8D8D8",
"G. c #EED7C2",
"H. c #EED9C7",
"J. c #E1D5CC",
"K. c #F0DCCA",
"L. c #E2D9D3",
"P. c #E7DFD8",
"I. c #F3E1D2",
"U. c #F5E7DB",
"Y. c #F7E9DF",
"T. c #E4E4E4",
"R. c #E8E8E7",
"E. c #EAEAEA",
"W. c #EAE6E2",
"Q. c #F6ECE3",
"!. c #F8EFE7",
"~. c #F7F2EE",
"^. c #F9F3ED",
"/. c #FCFCFB",
/* pixels */
"                                                                ",
"                              x L -                             ",
"                            z G L Z                             ",
"                      9 , N L L L G $                           ",
"                  ;.$.I m L L L L A > 0 I @                     ",
"              d.d.&.] 0 K L L L L b 7 5 5 < b Z ;               ",
"            d.d.s.*.f V L L L L L 9 3 3 n S L L L #             ",
"        d.d.j.l.h.#.d F L L L L S 9 M S K L L L L S X           ",
"        :.j.b.V.c.9. .H L L L L L L L L L L L L L L %           ",
"      d.j.M.V.K.J.y.>./ K L L L L L L L W H L L L L 1           ",
"    d.d.l.V.K.Y.~.p.<.p K L L H D R I q P L L L L A 9 U         ",
"    d.j.B.V.U.^.T.i.>.D L L H p a s 4 I L L L L S y | $.        ",
"  d.d.l.V.I.^.R.p.4.` L L L f l k a t L L L L H  .+.0.;.d.      ",
"  d.j.M.G.U.W.C.6. .L L L Q k >.k d K L L L K  .4.y.n.j.d.      ",
"  d.j.B.K.Y.S.e.o.K L L H g >.,.k J L L L L | 6.v.J.G.l.d.      ",
"  d.k.B.K.L.i.<.{ L L L _ >.>.k / L L L L ` 4.p.R.!.m.h.;.      ",
"  d.k.V.m.u.5.! L L L R k ,.>.h K L L L D <.i.T./.L.w.*.]       ",
"  d.k.c.w.5.| L L L K g >.,.k E K L L K o.6.S./.E.a.@.Y T       ",
"  d.j.h.1.h H L L L / >.<.,.h K L L L ! <.p.E./.D.7.^ L S       ",
"  d.:.=. .R L L L F k 4.e.,._ L L L K l e.Z./.T.i.o.D L A       ",
"    &.| i L L L L ) 6.y.i.<.E L L L E >.i.T.T.p.3.I L K -       ",
"    ..w A L L L { <.i.F.p.<.{ L L L ^ <.i.D.p.5.f G L A X       ",
"    * b K L L L  .e.S./.C.4.{ L L L u ,.r.r.6.g D L L :         ",
"      Z L L L D +.i.E./.Z.6.` L L L u k <.<.g C L L B           ",
"      L L L L I 1.v.^./.D.r.O.K L L R p p r D L L B .           ",
"      L L L S i 8.n.I.Q.L.v.5.| K L L S S L L K m               ",
"      v L L ; w %.l.V.G.K.A.t.1.) R K K K S N =                 ",
"      . x K +   &.d.d.j.l.M.c.0.X.t 5 < < & o                   ",
"        O v         d.f.f.d.d.:.&...I >                         ",
"                                                                ",
"                                                                ",
"                                                                "
};
