/* XPM */
static char *db7e6e8e52b94585b66d7b5ed9f7a454BArg7MhAC9v8H8HC[] = {
/* columns rows colors chars-per-pixel */
"64 64 207 2 ",
"   c None",
".  c #291A0C",
"X  c #372618",
"o  c #3C2F23",
"O  c #5B3A1D",
"+  c #4A2E15",
"@  c #623E1D",
"#  c #4B3725",
"$  c #5A4635",
"%  c #774B22",
"&  c #634D39",
"*  c #6C543E",
"=  c #74563B",
"-  c #7D5A3B",
";  c #664120",
":  c #5D5C5A",
">  c #745B43",
",  c #7C5E44",
"<  c #68594C",
"1  c #7D624B",
"2  c #78604A",
"3  c #68625D",
"4  c #796857",
"5  c #696867",
"6  c #786C62",
"7  c #7C736A",
"8  c #7C7C7C",
"9  c #787472",
"0  c #845225",
"q  c #945C29",
"w  c #865F3B",
"e  c #885F3B",
"r  c #86603E",
"t  c #8B623C",
"y  c #946236",
"u  c #9E6735",
"i  c #93643A",
"p  c #9E6A3C",
"a  c #96683D",
"s  c #AB6A2F",
"d  c #A1652E",
"f  c #A56A34",
"g  c #AC6D34",
"h  c #A56D3A",
"j  c #A66B35",
"k  c #B26F32",
"l  c #AC723D",
"z  c #AB703B",
"x  c #B47133",
"c  c #B97231",
"v  c #B17239",
"b  c #8C6642",
"n  c #82664C",
"m  c #86694F",
"M  c #8C6B4C",
"N  c #876444",
"B  c #936A45",
"V  c #9B6C42",
"C  c #936D4B",
"Z  c #9C724B",
"A  c #96714E",
"S  c #836B55",
"D  c #8A6C51",
"F  c #836E5B",
"G  c #8A7059",
"H  c #937356",
"J  c #9B7553",
"K  c #93765B",
"L  c #997759",
"P  c #9A795B",
"I  c #94785E",
"U  c #A37244",
"Y  c #A2744A",
"T  c #A97442",
"R  c #A17F5F",
"E  c #857362",
"W  c #8C7763",
"Q  c #837669",
"!  c #857A6F",
"~  c #8C7C6D",
"^  c #8B7967",
"/  c #937B66",
"(  c #927D6A",
")  c #847A72",
"_  c #8B7E72",
"`  c #867F78",
"'  c #97806B",
"]  c #8C8176",
"[  c #8C847C",
"{  c #84817E",
"}  c #948374",
"|  c #92847A",
" . c #988778",
".. c #A58162",
"X. c #AA8564",
"o. c #A8886A",
"O. c #B48D6A",
"+. c #B08A67",
"@. c #BA926E",
"#. c #A58D76",
"$. c #A8917C",
"%. c #BE9671",
"&. c #B79779",
"*. c #C09771",
"=. c #C49A74",
"-. c #C99E77",
";. c #CEA179",
":. c #C7A07E",
">. c #D2A57C",
",. c #D9AA7F",
"<. c #848483",
"1. c #8B8682",
"2. c #8D8985",
"3. c #8C8B8B",
"4. c #9B8E82",
"5. c #918E8C",
"6. c #978D85",
"7. c #9C938B",
"8. c #989089",
"9. c #939393",
"0. c #9C9C9C",
"q. c #9F9891",
"w. c #A0948B",
"e. c #AB9887",
"r. c #B69C85",
"t. c #B69E89",
"y. c #A79C93",
"u. c #ADA095",
"i. c #ABA29A",
"p. c #B8A89A",
"a. c #BFA085",
"s. c #A4A4A4",
"d. c #A9A9A9",
"f. c #ACAAA7",
"g. c #B4AAA2",
"h. c #BDB0A6",
"j. c #BBB3AC",
"k. c #B5B5B5",
"l. c #BCBCBC",
"z. c #BBB8B5",
"x. c #C7A688",
"c. c #DDAD82",
"v. c #DEB087",
"b. c #DFB289",
"n. c #C2A993",
"m. c #CCB39D",
"M. c #DCB693",
"N. c #D5B599",
"B. c #E0B48C",
"V. c #E2BA94",
"C. c #E4BD9B",
"Z. c #E1B791",
"A. c #C3B2A3",
"S. c #C0B5AD",
"D. c #CBB9A9",
"F. c #D3BAA3",
"G. c #CBBEB3",
"H. c #C5BEB9",
"J. c #C5BCB5",
"K. c #E5C09E",
"L. c #DEC3AC",
"P. c #CCC3BB",
"I. c #C6C2BE",
"U. c #DCCCBD",
"Y. c #D6C5B6",
"T. c #E6C3A3",
"R. c #E8C7AA",
"E. c #E9C9AD",
"W. c #E4C6A9",
"Q. c #EACEB4",
"!. c #E3CDBA",
"~. c #ECD2BC",
"^. c #EBD0B7",
"/. c #C4C4C4",
"(. c #CACACA",
"). c #CBC5C0",
"_. c #DBCFC4",
"`. c #D3CCC6",
"'. c #DDD4CC",
"]. c #DAD1C9",
"[. c #D4D4D4",
"{. c #DCDCDC",
"}. c #DCD7D2",
"|. c #EDD6C1",
" X c #EFD9C5",
".X c #EEDBC9",
"XX c #E1D5CA",
"oX c #F0DDCB",
"OX c #E6DED7",
"+X c #EBE2DA",
"@X c #E8E0DA",
"#X c #F3E2D4",
"$X c #F5E6DA",
"%X c #F6E9DE",
"&X c #E4E4E3",
"*X c #EBE6E2",
"=X c #EBEBEB",
"-X c #EEE9E3",
";X c #F6EBE2",
":X c #F8EDE4",
">X c #F6EFEA",
",X c #F6F1ED",
"<X c #FAF3EC",
"1X c #F2F2F2",
"2X c #FBF6F2",
"3X c #FDF9F6",
"4X c #FEFEFE",
/* pixels */
"                                                                                                                                ",
"                                                                                                                                ",
"                                                                ; s c c %                                                       ",
"                                                              0 s c c c s X                                                     ",
"                                                          # d x c c c c c 0                                                     ",
"                                              ,.-.O.R M w g c c c c c c c d &                                                   ",
"                                        c.c.c.-.@...D 1 g c c c c c c c c f , L O.-.                                            ",
"                                  c.c.c.c.c.>.%...D , g c c c c c c c c c y 1 P @.>.c.c.c.                                      ",
"                              c.c.c.c.c.c.,.=.+.H 1 u c c c c c c c c c c t n R *.c.c.c.c.-.O.                                  ",
"                          c.c.c.c.c.c.c.c.>.&.o.S b c c c c c c c c c c c b G o.*.c.,.>.=.O.R H > X                             ",
"                        c.c.c.c.c.c.c.v.Z.x.&./ 4 x c c c c c c c c c c k 1 W $.x.x.-.%.X.P D , e g d @                         ",
"                    c.c.c.c.c.c.v.b.V.C.N.x.$.E B c c c c c c c c c c c p 4 ~ $.r.t.&.' K 1 w g c c c c %                       ",
"                  c.c.c.c.c.c.B.V.C.K.R.m.t. .F x c c c c c c c c c c c b 6 ~  .e.#.( E n f x c c c c c c O                     ",
"                c.c.c.c.c.c.B.C.K.R.E.L.D.e._ M c c c c c c c c c c c c 1 3 7 ! ! Q F p k c c c c c c c c g X                   ",
"              c.c.c.c.c.B.V.C.T.E.Q.~.L.m.7.! l c c c c c c c c c c c p : 3 3 6 S V c c c c c c c c c c c c y                   ",
"            c.c.c.c.c.B.V.T.T.Q.~.~..XY.h.8.E x c c c c c c c c c c c 2 : 4 V z k c c c c c c c c c c c c x g =                 ",
"          c.c.c.c.c.B.V.K.E.Q.^. XoX#X_.S.7.Q x c c c c c c c c c c c h z x c c c c c c c c c c c c c c c c c e >               ",
"        c.c.c.c.c.B.C.K.E.Q.~.oXoX#X%X}.H.0.~ x c c c c c c c c c c c c c c c c c c c c c c c c c c c c c c c y n 1             ",
"        c.c.c.c.B.V.K.E.Q.~.oXoX%X:X:X@X(.d.1.T c c c c c c c c c c c c c c c c c c c c c c c c c c c c c c c f 1 P             ",
"      c.c.c.,.B.V.K.E.^.~.oX#X$X:X<X3X,X{.l.9.I c c c c c c c c c c c c c c c c c c c h b v c c c c c c c c c y n R @.          ",
"      c.c.c.c.V.K.R.Q.~. X#X%X:X,X3X3X4X@X/.0.<.H c c c c c c c c c c c c c c c c h n : B c c c c c c c c c c t D X.=.          ",
"    c.c.c.c.B.C.T.E.^. X#X$X:X<X3X4X4X4X=X(.d.<.5 x c c c c c c c c c c c l U M 1 5 : b c c c c c c c c c c j m L O.-.c.        ",
"    c.c.,.B.V.K.E.^.~.#X#X:X<X3X4X4X4X4X&X/.s.<.A c c c c c c x C H J K Q 7 9 5 5 : b c c c c c c c c c c x M / o.*.>.c.        ",
"  c.c.c.c.B.C.T.Q.~.oX#X%X<X2X4X4X4X4X=X[.k.9.I c c c c c c c G 8 2.9.9.9.3.<.9 5 M c c c c c c c c c c c C } $.a.;.c.c.c.      ",
"  c.c.c.c.V.K.E.^. X#X$X>X2X4X4X4X4X=X[.l.0.} x c c c c c c l <.9.f.k.k.d.0.3.8 F x c c c c c c c c c x H  .r.n.N.c.c.c.c.      ",
"c.c.c.c.B.C.R.Q.~.oX#X:X<X3X4X4X4X1X{./.s.[ l x c c c c x x _ 9.k.(.[.(.l.s.3.7 x c c c c c c c c c c L 6.u.A.F.T.Z.c.c.c.      ",
"c.c.c.c.V.K.R.^. X#X$X<X3X4X4X4X3X&X(.d.3.Y c c c c c c x L 9.k.(.{.&X[.k.0.` z c c c c c c c c c c P 8.g.D.Y.Q.R.C.c.c.c.c.    ",
"c.c.,.B.V.T.Q.~. X#X%X<X3X4X4X4X=X[.k.9.I c c c c c c c T 2.d.(.&X3X&X/.d.3.U x c c c c c c c c c J 5.g.H._..X^.E.T.b.c.c.c.    ",
"c.c.c.B.C.R.Q.~.oX$X:X<X4X4X4X1X{.l.0._ x c c c c c c x ( 0.l.[.=X&X[.k.9.P c c c c c c c c c c U 3.s.I.'.#XoX|.Q.T.V.c.c.c.    ",
"c.c.c.B.C.R.Q. X#X$X<X3X4X4X3X&X/.d.2.l c c c c c c c J 9.k.[.&X=X}.l.0.^ c c c c c c c c c c T 1.s.I.}.+X$X#X XQ.E.C.c.c.c.    ",
"c.c.c.V.K.R.^. X#X%X<X3X4X3X=X[.k.9.Z c c c c c c c T 2.s.(.{.3X&X(.d.2.l c c c c c c c c c v ] 0.l.[.*X<X%X#X X^.E.K.c.c.c.c.  ",
"c.c.c.V.K.E.~.oX#X%X<X3X4X=X[.k.0.I x c c c c c c c } 0.l.{.=X&X[.k.9.J c c c c c c c c c x } 0.l.[.=X3X<X:X#XoX^.E.T.c.c.c.c.  ",
"c.c.c.V.T.E.^.oX#X;X2X3X=X[.l.0.} c c c c c c c c J 9.k.[.&X=X{.l.0.( c c c c c c c c c c P 9.l.[.=X4X3X2X:X#XoX~.E.T.c.c.c.c.  ",
"c.c.v.V.T.Q.~.oX#X;X2X1X&X/.s.[ v c c c c c c c v 1.d.(.{.3X&X(.d.1.l c c c c c c c c c Y 9.k.[.&X4X4X4X<X:X#XoX~.W.N.>.>.c.c.  ",
"c.c.v.V.T.E.~.oX$X;X1X@X/.d.3.U c c c c c c c c / 0.l.[.=X=X[.z.9.L x c c c c c c c c l 2.d./.&X4X4X4X4X2X:X#X.XL.m.x.%.=.;.c.  ",
"c.c.c.V.T.E.~.oX#X;X@X(.k.9.L c c c c c c c c Y 9.k.[.=X4X&X(.s.[ x c c c c c c c c c ^ i.l.{.1X4X4X4X3X<X:X#XY.A.r.#...+.*.;.  ",
",.c.c.V.K.E.~. X#X@X].l.0.~ c c c c c c c c v ] s./.&X3X1X[.k.9.J c c c c c c c c c J 9.k.[.=X4X4X4X4X3X<X;X_.D.t.} H D L +.O.  ",
"c.c.c.V.K.R.~. X#X_.H.i.1.l c c c c c c c c P 9.k.}.=X4X&X/.s.[ x c c c c c c c c v 2.d.(.&X3X4X4X4X4X3X<XOXY.p. .D x h D R     ",
"c.c.c.B.C.R.^.~.U.P.f.3.Y c c c c c c c c l 3.d.(.&X4X1X{.l.9.L c c c c c c c c x / 0.l.[.1X4X4X4X4X4X3X:X_.A.4.E g c x a H     ",
"c.c.,.B.C.R.Q.Q.G.g.7./ c c c c c c c c v ~ 0.l.{.1X4X&X(.d.[ l c c c c c c c c U 9.k.[.=X4X4X4X4X4X4X2X+XY.u._ B c c c k D     ",
"c.c.c.c.C.T.E.F.p.7._ l c c c c c c c c Z 5.k.[.=X3X4X{./.0./ c c c c c c c c x / s./.{.4X4X4X4X4X4X3X>X_.h.4.F k c c c j 1     ",
"c.c.c.c.B.K.F.n.e.] U c c c c c c c c l [ s./.&X4X4X1X[.k.3.J c c c c c c c c T 5.k.[.1X4X4X4X4X4X4X<XOXP.y.! a c c c k i $     ",
"  c.c.c.B.b.x.t.] H c c c c c c c c c H 9.k.[.1X4X4X=X(.d.<.Y c c c c c c c c P 0.l.{.4X4X4X4X4X4X3X;X`.p.| S x c c c g r       ",
"  c.c.c.,.x.r.} E g c c c c c c c c l [ s.(.&X4X4X4X&X/.0.{ l c c c c c c c v [ s.(.=X4X4X4X4X4X4X1X'.S.7.Q h c c c c f *       ",
"    c.c.>.%.#.F B c c c c c c c c c K 9.k.[.1X4X4X4X&X/.0.~ x c c c c c c c U 3.k.[.1X4X4X4X4X4X2XOXP.y.] M c c c c c y o       ",
"    c.c.=.X.I n g c c c c c c c c Z <.d.(.&X4X4X4X4X&X/.9.^ x c c c c c c c Z 9.l.{.3X4X4X4X4X3X-X`.h.| S x c c c c x =         ",
"      >.@.R n b c c c c c c c c c W 9.k.[.1X4X4X4X4X&X/.0.~ x c c c c c c c L 0./.{.4X4X4X4X3X<X'.S.7.Q h c c c c c f #         ",
"      -.O.K > u c c c c c c c c l { s./.&X4X4X4X4X4X&X/.s.~ v c c c c c c c I 9./.&X4X4X4X3X<X'.G.y._ p c c c c c c -           ",
"        X.D t k c c c c c c c c F 5.k.[.1X4X4X4X4X4X=X(.d.[ l c c c c c c c W 9.I.{.4X4X1X;X].J.u.} C c c c c c c i X           ",
"        G m j c c c c c c c c p 7 y.J.OX2X4X4X4X4X4X1X{.k.3.Y c c c c c c c H 9.k.[.,X-XXXP.h.y.[ C c c c c c c f $             ",
"          > s c c c c c c c c S [ u.P.+X<X2X3X4X4X4X3X{./.0.L x c c c c c c Z <.s.l.).P.z.i.8.~ C c c c c c c g =               ",
"            c c c c c c c c h 4 4.p.U.$X;X:X<X2X3X3X4X=X(.d.[ l c c c c c c l 7 2.y.u.y.8.] F V c c c c c c x =                 ",
"            c c c c c c c x N Q e.A.!.oX#X$X%X:X,X<X2X;X[.k.9.K c c c c c c c l 6 ) ` Q 6 M g c c c c c c j =                   ",
"            c c c c c c c g 2 ( r.F.^.|.oXoX#X#X$X%X;X;XXXI.i.1.U c c c c c c c z B B B g c c c c c c c p =                     ",
"            c c c c c c c y 1 / x.N.E.Q.~.|. XoX#X#X#X#X.XY.j.w.` Z c c c c c c c c c c c c c c c c g t *                       ",
"            k c c c c c x - M ..=.V.T.R.E.Q.^.~.~. X XoX.X_.G.p.8.] A v c c c c c c c c c c c c k y , *                         ",
"            @ s c c c c d > H O.>.,.v.V.C.R.R.E.Q.~.^.~.|.~.L.F.p.e. .F C h x c c c c c x k f w , 1 $                           ",
"              % c c c c 0 & P O.,.,.,.,.v.B.C.C.T.T.R.R.E.E.E.L.m.x.$.} ^ 4 1 N r w t w - = > 1 >                               ",
"                d c c c +     %.,.v.,.v.,.,.,.b.B.B.Z.C.F.T.T.T.K.N.x.@...H D D n m m n D D n                                   ",
"                . q c q           v.,.v.,.v.v.,.,.,.c.c.c.c.c.c.c.,.;.=.%.O.X.X.X...X...P                                       ",
"                  + q O                 ,.v.,.,.,.,.,.B.c.c.c.c.c.c.c.c.>.-.=.=.=.%.                                            ",
"                                              B.B.,.,.,.c.c.c.c.c.c.c.c.c.c.c.                                                  ",
"                                                                                                                                ",
"                                                                                                                                "
};
