<?xml version="1.0" standalone="no"?>
<!DOCTYPE svg PUBLIC "-//W3C//DTD SVG 20010904//EN"
 "http://www.w3.org/TR/2001/REC-SVG-20010904/DTD/svg10.dtd">
<svg version="1.0" xmlns="http://www.w3.org/2000/svg"
 width="820.000000pt" height="820.000000pt" viewBox="0 0 820.000000 820.000000"
 preserveAspectRatio="xMidYMid meet">

<g transform="translate(0.000000,820.000000) scale(0.100000,-0.100000)"
fill="#000000" stroke="none">
<path d="M4283 7519 c-127 -12 -197 -36 -293 -100 -116 -78 -364 -333 -494
-508 -116 -157 -183 -264 -168 -269 6 -2 -11 -66 -44 -160 -76 -217 -106 -359
-104 -492 3 -249 14 -339 47 -386 20 -31 25 -49 32 -110 0 -5 9 -19 19 -30 71
-77 77 -92 77 -194 l0 -97 -42 -61 c-24 -33 -43 -67 -43 -74 0 -8 -15 -32 -33
-54 -19 -21 -46 -57 -60 -79 -45 -69 -89 -129 -117 -162 -16 -17 -32 -42 -36
-55 -4 -13 -24 -43 -45 -66 -21 -24 -43 -59 -49 -78 -6 -19 -15 -34 -20 -34
-5 0 -12 -9 -15 -20 -4 -11 -29 -48 -56 -82 -27 -34 -49 -67 -49 -75 0 -7 -17
-32 -38 -56 -22 -23 -56 -69 -77 -102 -20 -33 -57 -83 -81 -111 -24 -28 -49
-64 -56 -80 -6 -16 -27 -48 -46 -72 -19 -24 -44 -62 -57 -86 -13 -24 -46 -72
-75 -107 -28 -35 -59 -77 -67 -94 -9 -16 -29 -45 -45 -64 -17 -19 -38 -52 -48
-75 -10 -23 -44 -77 -77 -121 -33 -44 -64 -92 -68 -105 -4 -14 -21 -40 -36
-58 -16 -18 -36 -47 -45 -65 -9 -17 -31 -50 -49 -72 -17 -22 -36 -47 -41 -56
-5 -9 -21 -32 -36 -50 -64 -79 -252 -355 -304 -444 -16 -27 -34 -59 -41 -70
-7 -11 -27 -51 -46 -88 -18 -37 -36 -65 -39 -62 -13 13 -27 -139 -32 -347 -3
-119 -7 -221 -8 -225 -8 -30 16 -550 28 -610 27 -135 95 -249 206 -346 93 -81
110 -87 230 -87 92 1 106 3 129 23 54 46 136 155 154 205 10 28 22 49 27 46 4
-3 5 1 3 8 -3 8 19 88 48 178 30 91 51 171 47 178 -29 56 186 812 264 926 14
21 26 46 26 55 1 9 9 34 20 56 11 22 19 52 20 66 0 14 11 36 26 50 23 21 94
155 94 177 0 5 15 26 33 48 22 26 43 70 62 129 18 58 39 101 58 121 16 18 44
66 62 108 18 43 52 101 74 130 23 29 41 62 41 73 0 21 55 118 94 164 14 16 31
49 37 72 7 23 20 51 29 62 41 49 100 146 100 165 0 12 16 40 35 63 35 43 105
168 105 188 0 7 16 29 35 50 19 21 37 51 41 66 8 35 37 83 92 154 24 31 46 72
48 90 3 19 18 48 34 64 36 38 100 145 100 167 0 9 17 37 39 61 21 25 41 57 45
72 8 30 43 88 92 153 18 24 40 66 50 94 12 36 33 67 72 105 72 72 134 99 242
107 47 3 114 11 150 16 36 6 85 13 110 16 25 2 63 11 85 18 76 25 165 47 220
52 11 1 38 5 60 8 22 4 47 7 55 9 36 5 126 -27 152 -54 24 -25 28 -36 27 -86
-1 -32 -8 -76 -16 -98 -17 -49 -86 -151 -164 -244 -32 -39 -59 -75 -59 -81 0
-6 -18 -30 -40 -54 -22 -24 -49 -64 -60 -89 -11 -25 -26 -52 -33 -59 -6 -7
-24 -29 -39 -50 -15 -20 -34 -42 -41 -50 -7 -7 -22 -26 -32 -43 -11 -16 -38
-55 -61 -85 -23 -30 -45 -70 -49 -88 -4 -18 -31 -65 -61 -105 -30 -40 -59 -88
-64 -107 -5 -20 -25 -51 -45 -70 -20 -19 -37 -48 -41 -67 -3 -18 -10 -35 -14
-38 -5 -3 -14 -22 -21 -43 -7 -20 -27 -55 -45 -77 -31 -38 -84 -163 -84 -198
0 -8 -15 -35 -33 -59 -37 -50 -73 -135 -81 -197 -4 -24 -24 -78 -46 -120 -22
-43 -40 -88 -40 -101 0 -12 -4 -39 -10 -59 -8 -30 -23 -120 -45 -266 -2 -16
-9 -59 -14 -95 -6 -36 -10 -74 -10 -85 0 -11 0 -71 -1 -133 0 -63 2 -128 5
-145 3 -18 7 -50 9 -72 3 -22 12 -69 20 -105 9 -36 16 -78 16 -95 0 -46 42
-166 71 -205 15 -19 30 -46 34 -60 4 -14 13 -32 20 -40 7 -8 20 -31 28 -51 13
-31 104 -141 212 -255 17 -18 62 -56 100 -85 39 -29 72 -56 73 -61 2 -4 8 -8
13 -8 5 0 39 -19 75 -42 68 -42 294 -143 374 -167 25 -7 52 -17 61 -21 25 -13
169 -31 209 -26 32 5 34 4 16 -10 -85 -63 480 102 674 196 226 111 374 215
585 413 267 251 433 472 570 762 99 209 115 300 115 670 -1 307 -10 369 -68
463 -14 21 -16 22 -33 6 -11 -10 -19 -13 -19 -7 0 5 -6 10 -12 11 -7 1 -34 4
-59 8 -97 13 -175 -67 -276 -286 -181 -388 -241 -504 -360 -686 -18 -27 -37
-54 -43 -61 -5 -7 -10 -15 -10 -17 0 -5 -55 -88 -131 -196 -78 -111 -298 -342
-424 -445 -62 -50 -179 -125 -205 -132 -14 -3 -29 -9 -35 -13 -13 -9 -68 -28
-135 -46 -119 -33 -302 -13 -396 41 -43 25 -104 88 -104 106 0 6 -10 25 -22
42 -12 16 -25 51 -30 76 -17 98 -28 168 -34 216 -3 28 -7 55 -9 62 -4 14 30
345 45 423 17 95 37 173 65 245 14 39 34 95 44 125 23 69 59 150 76 170 7 8
18 33 25 55 17 54 75 170 105 209 14 18 25 40 25 48 0 8 14 32 30 53 17 21 30
43 30 50 0 7 15 32 34 54 19 23 40 58 47 79 6 20 23 51 36 67 61 77 94 124
117 166 13 25 32 51 41 59 9 8 28 34 41 59 24 45 56 90 129 181 35 44 77 99
122 163 28 39 86 113 136 174 21 25 46 58 55 72 9 14 38 51 65 81 27 30 69 78
93 105 122 140 191 213 228 242 80 62 192 189 246 278 14 23 30 40 37 38 7 -3
18 24 29 69 22 90 28 450 8 483 -6 11 -17 45 -24 75 -17 77 -117 282 -191 392
-75 110 -214 252 -284 290 -135 72 -290 54 -469 -56 -170 -103 -242 -153 -239
-163 5 -15 -125 -120 -238 -193 -21 -14 -77 -50 -124 -80 -102 -66 -137 -84
-190 -100 -22 -7 -52 -18 -68 -25 -71 -31 -217 -5 -234 42 -3 10 -12 25 -19
33 -7 9 -14 43 -15 75 -2 54 0 81 15 150 5 25 55 149 94 235 16 36 33 79 36
97 4 17 13 34 20 36 9 4 16 42 21 129 33 540 -40 693 -345 728 -47 5 -87 9
-90 9 -3 -1 -42 -5 -87 -10z"/>
</g>
</svg>
